<?xml version="1.0" encoding="utf-8"?>
<!-- Generator: Adobe Illustrator 17.0.0, SVG Export Plug-In . SVG Version: 6.00 Build 0)  -->
<!DOCTYPE svg PUBLIC "-//W3C//DTD SVG 1.1//EN" "http://www.w3.org/Graphics/SVG/1.1/DTD/svg11.dtd">
<svg version="1.1" id="Layer_1" xmlns="http://www.w3.org/2000/svg" xmlns:xlink="http://www.w3.org/1999/xlink" x="0px" y="0px"
	 width="1012px" height="992px" viewBox="0 0 1012 992" enable-background="new 0 0 1012 992" xml:space="preserve">
<g>
	<ellipse fill="#CAD2EA" cx="652.331" cy="939.999" rx="225.705" ry="25.601"/>
	<g>
		<g>
			<path fill="#A0FFAA" d="M528.329,274.044c-63.895-168.526-303.469-168.526-367.364,0
				c-15.532,40.967-23.686,90.337-18.585,149.447c21.986,254.774,202.267,532.737,202.267,532.737s180.281-277.962,202.267-532.737
				C552.015,364.38,543.861,315.011,528.329,274.044z"/>
			<circle fill="#343766" cx="344.647" cy="352.839" r="80.557"/>
		</g>
		<g>
			<g>
				<g>
					<path id="XMLID_40_" fill="#1F1949" d="M742.395,157.369c1.353,0.291,2.685,0.607,3.993,0.947
						c39.425,10.235,64.303,47.466,69.587,86.423c3.721,27.432,2.163,55.858,2.586,83.492c0.454,29.717,0.872,59.441,0.369,89.161
						c-0.37,21.862-0.99,45.63-12.258,65.069c-12.017,20.731-36.77,29.392-59.527,32.197c-13.802,1.701-27.728,1.307-41.57,0.373
						c-10.985-0.742-26.776,0.446-36.153-6.281c-5.36-3.846-8.076-10.326-10.214-16.566
						c-11.879-34.687-13.733-71.901-14.903-108.547c-1.318-41.285-1.904-82.593-1.758-123.898c0.091-25.66,3.23-49.43,14.55-72.68
						C671.837,156.79,712.215,150.878,742.395,157.369z"/>
				</g>
				<g>
					<defs>
						<path id="SVGID_13_" d="M742.395,157.369c1.353,0.291,2.685,0.607,3.993,0.947c39.425,10.235,64.303,47.466,69.587,86.423
							c3.721,27.432,2.163,55.858,2.586,83.492c0.454,29.717,0.872,59.441,0.369,89.161c-0.37,21.862-0.99,45.63-12.258,65.069
							c-12.017,20.731-36.77,29.392-59.527,32.197c-13.802,1.701-27.728,1.307-41.57,0.373c-10.985-0.742-26.776,0.446-36.153-6.281
							c-5.36-3.846-8.076-10.326-10.214-16.566c-11.879-34.687-13.733-71.901-14.903-108.547
							c-1.318-41.285-1.904-82.593-1.758-123.898c0.091-25.66,3.23-49.43,14.55-72.68
							C671.837,156.79,712.215,150.878,742.395,157.369z"/>
					</defs>
					<clipPath id="SVGID_1_">
						<use xlink:href="#SVGID_13_"  overflow="visible"/>
					</clipPath>
					<path clip-path="url(#SVGID_1_)" fill="#343766" d="M768.837,258.15c10.584,13.567,22.796,26.649,38.633,33.38
						c15.837,6.731,36.055,5.644,48.147-6.598c5.737-5.808,9.173-13.523,11.434-21.368c11.182-38.799-6.151-83.127-38.755-106.947
						c-12.544-9.165-27.094-15.396-42.257-18.666c-15.254-3.29-31.128-3.629-46.532-1.171c-7.713,1.231-15.316,3.167-22.669,5.802
						c-1.144,0.41-3.421,0.83-3.991,2.086c-0.621,1.367,0.676,3.961,1.059,5.307c1.169,4.106,2.423,8.188,3.758,12.243
						c5.383,16.347,12.103,32.253,20.057,47.514c7.954,15.261,17.144,29.88,27.468,43.65
						C766.39,254.982,767.606,256.572,768.837,258.15z"/>
				</g>
			</g>
			<g>
				<g>
					<g>
						<path id="XMLID_119_" fill="#DA8C8D" d="M644.558,641.474c12.974,58.463,84.997,268.674,84.997,268.674l10.358-0.486
							l7.058-8.63l-19.555-281.141L644.558,641.474z"/>
					</g>
					<g>
						<defs>
							<path id="SVGID_15_" d="M644.558,641.474c12.974,58.463,84.997,268.674,84.997,268.674l10.358-0.486l7.058-8.63
								l-19.555-281.141L644.558,641.474z"/>
						</defs>
						<clipPath id="SVGID_2_">
							<use xlink:href="#SVGID_15_"  overflow="visible"/>
						</clipPath>
						<path clip-path="url(#SVGID_2_)" fill="#C17276" d="M644.558,664.502c0,0,58.425,0,89.482-17.501l-6.625-27.11l-91.186,4.306
							L644.558,664.502z"/>
					</g>
				</g>
				<path fill="#343766" d="M748.237,898.082l-24.125,5.318l3.826,11.281c0,0-25.978,8.368-35.889,25.319l61.596-12.108
					L748.237,898.082z"/>
			</g>
			<g>
				<g>
					<g>
						<path id="XMLID_118_" fill="#DA8C8D" d="M544.217,631.477c1.413,59.868,31.388,280.045,31.388,280.045l10.257,1.528
							l8.594-7.101l35.229-279.61L544.217,631.477z"/>
					</g>
					<g>
						<defs>
							<path id="SVGID_17_" d="M544.217,631.477c1.413,59.868,31.388,280.045,31.388,280.045l10.257,1.528l8.594-7.101
								l35.229-279.61L544.217,631.477z"/>
						</defs>
						<clipPath id="SVGID_3_">
							<use xlink:href="#SVGID_17_"  overflow="visible"/>
						</clipPath>
						<path clip-path="url(#SVGID_3_)" fill="#C17276" d="M544.217,666.963c0,0,72.185,7.409,88.315-0.801l9.995-36.839
							l-109.498-2.983L544.217,666.963"/>
					</g>
				</g>
				<path fill="#343766" d="M596.269,903.3l-24.698,0.547l1.57,11.808c0,0-27.106,3.182-40.111,17.894l62.775,0.043L596.269,903.3z"
					/>
			</g>
			<path fill="#39548B" d="M556.733,415.049L533.03,634.241c0,0,63.834,30.297,99.503,16.93c0,0,93.108-3.738,101.507-15.037
				c0,0-4.99-180.592-30.338-227.302C703.702,408.832,584.029,421.757,556.733,415.049z"/>
			<path fill="#1F1949" d="M632.533,651.171c0,0-1.972-131.152-3.283-156.418c0,0-32.517,138.758-21.773,159.754
				C607.477,654.507,626.998,655.132,632.533,651.171z"/>
			<g>
				<g>
					<path id="XMLID_117_" fill="#96E996" d="M542.131,459.101c-4.395-2.697-7.134-7.415-7.423-12.564
						c-1.939-34.575-8.802-203.911,39.162-254.74c38.749-41.064,74.066-21.692,74.066-21.692s99.414,39.962,64.164,159.282
						c-7.729,26.163,15.496,83.228,8.838,112.67C712.708,478.452,578.148,481.204,542.131,459.101z"/>
				</g>
				<g>
					<defs>
						<path id="SVGID_19_" d="M542.131,459.101c-4.395-2.697-7.134-7.415-7.423-12.564c-1.939-34.575-8.802-203.911,39.162-254.74
							c38.749-41.064,74.066-21.692,74.066-21.692s99.414,39.962,64.164,159.282c-7.729,26.163,15.496,83.228,8.838,112.67
							C712.708,478.452,578.148,481.204,542.131,459.101z"/>
					</defs>
					<clipPath id="SVGID_4_">
						<use xlink:href="#SVGID_19_"  overflow="visible"/>
					</clipPath>
					<path clip-path="url(#SVGID_4_)" fill="#96D796" d="M720.507,343.331l-51.666-47.452c0,0-7.719,23.426,4.249,67.274
						c11.968,43.848,47.417,109.276,47.417,109.276s29.716-48.609,19.659-73.837C730.108,373.364,720.507,343.331,720.507,343.331z"
						/>
				</g>
			</g>
			<g>
				<path fill="#96D796" d="M679.183,120.865c-3.753,6.5-37.883-3.621-70.721-22.58c-32.838-18.959-56.417-39.598-52.665-46.098
					c3.753-6.5,33.416,3.601,66.254,22.56S682.935,114.365,679.183,120.865z"/>
				<g>
					<g>
						<g>
							<g>
								<g>
									<g>
										<g>
											<path id="XMLID_116_" fill="#DA8C8D" d="M578.445,96.677c0,0-18.247,62.694,15.051,60.724s53.597-39.361,42.267-62.911
												C624.432,70.939,587.731,55.204,578.445,96.677z"/>
										</g>
										<g>
											<defs>
												<path id="SVGID_21_" d="M578.445,96.677c0,0-18.247,62.694,15.051,60.724s53.597-39.361,42.267-62.911
													C624.432,70.939,587.731,55.204,578.445,96.677z"/>
											</defs>
											<clipPath id="SVGID_5_">
												<use xlink:href="#SVGID_21_"  overflow="visible"/>
											</clipPath>
											<path clip-path="url(#SVGID_5_)" fill="#C17276" d="M627.418,98.135c3.806-1.504,7.992-3.661,9.013-7.625
												c1.174-4.553-2.506-8.924-6.405-11.553c-9.649-6.507-21.901-7.983-33.51-7.172c-8.563,0.598-17.344,2.462-24.727,7.021
												c-6.818,4.21-13.138,11.721-13.471,20.101c-0.254,6.372,5.55,8.607,10.947,9.232c8.159,0.944,16.805-0.048,24.884-1.202
												c10.134-1.448,20.12-3.945,29.736-7.459C625.068,99.046,626.246,98.598,627.418,98.135z"/>
										</g>
									</g>
									<path fill="#DA8C8D" d="M638.967,107.365c0,0-4.589,32.224,5.591,63.549c0,0-19.544,15.402-35.788,15.124
										s1.153-59.098,1.153-59.098L638.967,107.365z"/>
								</g>
								<path fill="#C17276" d="M603.361,155.716c0,0,2.313,0.827,14.741-9.066c0,0,1.629,14.033-16.15,21.287
									C601.952,167.937,602.696,159.419,603.361,155.716z"/>
							</g>
						</g>
						<path fill="#343766" d="M620.616,90.851c0.493,8.622,2.705,17.142,6.466,24.916c-0.17-2.205,0.185-4.847,2.146-5.869
							c1.524-0.794,3.491-0.199,4.712,1.011c1.22,1.21,1.83,2.901,2.242,4.57c0.563,2.282,0.823,4.701,0.225,6.975
							s-2.17,4.382-4.388,5.162c2.352,5.702,4.602,11.584,6.953,17.285c10.446-10.988,17.025-25.581,18.344-40.685
							c0.347-3.974,0.339-8.003-0.393-11.924c-1.199-6.426-4.377-12.469-8.993-17.098c-1.832-1.837-3.921-3.476-6.339-4.415
							c-5.534-2.149-12.189-0.125-16.233,4.222C621.315,79.348,620.277,84.924,620.616,90.851z"/>
						<path fill="#343766" d="M586.274,56.827c9.048-0.444,18.118-1.365,25.731-3.078c0.47-0.106,0.935-0.199,1.393-0.279
							c22.881-4.009,29.347,30.328,6.707,35.525c-12.109,2.779-25.161,5.432-31.603,5.625c0,0-28.1,7.069-40.072-1.505
							C536.459,84.54,554.3,57.147,586.274,56.827"/>
					</g>
					<g>
						<path fill="#FFFFFF" d="M608.881,185.857l-13.57,10.373c0,0-0.216-16.213,1.872-23.579l4.779-2.279
							C601.961,170.371,602.525,182.552,608.881,185.857z"/>
						<path fill="#FFFFFF" d="M608.881,185.857l13.893,21.196c0,0,27.176-20.862,29.558-34.781l-7.78-3.636
							C644.551,168.637,623.968,184.078,608.881,185.857z"/>
					</g>
				</g>
				<path fill="#96E996" d="M580.769,54.891c0,0,61.55,28.412,81.838,48.023c0,0,8.204-40.819-3.592-49.769
					c-11.796-8.95-19.967-8.875-19.967-8.875s-5.639-8.289-16.405-10.785C606.19,29.671,580.769,54.891,580.769,54.891z"/>
				<path fill="#96D796" d="M555.797,52.187c0,0,88.721,67.134,118.919,68.658C704.913,122.369,588.808,36.973,555.797,52.187z"/>
				<path fill="#FFFFFF" d="M579.022,138.846c0,0,12.147,3.471,19.522-3.904c0,0-6.697,12.125-12.393,11.707
					S579.022,138.846,579.022,138.846z"/>
			</g>
			<g>
				<path fill="#DA8C8D" d="M401.421,164.507c0,0-6.871-32.271-8.86-34.49s-17.863,9.136-16.524,20.32
					c1.339,11.183,10.63,34.816,10.63,34.816S402.419,169.099,401.421,164.507z"/>
				<path fill="#DA8C8D" d="M403.57,167.929c-0.373-0.595,3.432-18.636,3.432-18.636s-3.595,1.563-4.65,3.281
					c-1.055,1.718-4.81,11.217-4.81,11.217L403.57,167.929z"/>
			</g>
			<g>
				<g>
					<path id="XMLID_44_" fill="#DA8C8D" d="M517.761,301.002c0,0-54.578,38.385-67.278,33.981
						c-28.277-9.805-66.168-158.744-66.168-158.744l17.105-11.732c0,0,57.542,91.165,61.125,107.229l17.204-13.495
						C479.75,258.241,505.576,287.224,517.761,301.002z"/>
				</g>
				<g>
					<defs>
						<path id="SVGID_23_" d="M517.761,301.002c0,0-54.578,38.385-67.278,33.981c-28.277-9.805-66.168-158.744-66.168-158.744
							l17.105-11.732c0,0,57.542,91.165,61.125,107.229l17.204-13.495C479.75,258.241,505.576,287.224,517.761,301.002z"/>
					</defs>
					<clipPath id="SVGID_6_">
						<use xlink:href="#SVGID_23_"  overflow="visible"/>
					</clipPath>
					<path clip-path="url(#SVGID_6_)" fill="#C17276" d="M512.638,310.975c3.279,1.724,7.667,3.158,10.361,0.614
						c1.804-1.704,1.966-4.493,1.79-6.968c-0.656-9.268-4.284-18.054-8.333-26.417c-5.145-10.626-11.991-21.699-23.162-25.521
						c-8.361-2.861-28.803-0.002-25.999,12.809c1.263,5.772,5.688,11.013,9.261,15.514c4.599,5.794,9.762,11.139,15.39,15.939
						C498.299,302.364,505.247,307.089,512.638,310.975z"/>
				</g>
			</g>
			<path fill="#96E996" d="M472.167,249.832c0,0,45.079,69.236,56.028,69.512l52.573-25.111l5.74-113.912L472.167,249.832z"/>
			<path fill="#96D796" d="M536.396,315.427c0,0,8.245-54.35,14.194-72.792c0,0-28.679,70.333-28.072,73.536
				c0,0,3.579,3.26,5.676,3.173C530.292,319.258,536.396,315.427,536.396,315.427z"/>
			<path fill="#1F1949" d="M398.355,177.017L398.355,177.017c-2.594,0.304-4.944-1.553-5.248-4.147l-8.759-74.754
				c-0.304-2.595,1.553-4.944,4.148-5.248l0,0c2.594-0.304,4.944,1.553,5.248,4.147l8.759,74.754
				C402.807,174.363,400.95,176.713,398.355,177.017z"/>
			<path fill="#96DF96" d="M694.878,207.053c0,0,44.415,61.786,67.33,112.293c0,0-55.652,28.682-73.111,28.682
				C689.097,348.028,662.467,228.669,694.878,207.053z"/>
			<path fill="#343766" d="M678.805,185.152c-0.884,11.845-0.955,23.547-0.748,35.212c0.239,11.659,0.824,23.258,1.78,34.808
				c0.93,11.551,2.194,23.052,3.734,34.51c0.833,5.722,1.568,11.453,2.554,17.151c0.463,2.852,0.917,5.706,1.414,8.554l0.362,2.137
				c0.119,0.719,0.265,1.323,0.395,1.99l0.398,1.957c0.143,0.655,0.325,1.322,0.486,1.982c1.269,5.303,2.908,10.704,4.759,16.075
				c1.802,5.401,3.826,10.777,5.885,16.165c2.045,5.4,4.275,10.75,6.43,16.15l6.73,16.138c9.068,21.55,18.545,43.051,27.183,65.207
				c-3.748-4.628-7.322-9.379-10.755-14.215c-3.454-4.826-6.775-9.736-10.036-14.688c-6.488-9.923-12.602-20.086-18.374-30.469
				c-5.783-10.38-11.122-21.029-16.018-31.975c-2.419-5.491-4.675-11.075-6.811-16.761c-2.034-5.731-3.934-11.567-5.422-17.701
				c-0.177-0.771-0.372-1.527-0.534-2.309l-0.457-2.371c-0.143-0.778-0.321-1.61-0.433-2.343l-0.35-2.217
				c-0.461-2.956-0.962-5.906-1.319-8.879c-0.403-2.965-0.751-5.938-1.081-8.914c-0.365-2.97-0.617-5.956-0.874-8.937
				c-0.467-5.97-0.881-11.943-1.017-17.933c-0.223-5.982-0.188-11.976-0.051-17.96c0.328-11.968,1.335-23.922,3.214-35.735
				c0.957-5.904,2.108-11.775,3.551-17.572C674.848,196.42,676.541,190.669,678.805,185.152z"/>
			<path fill="#343766" d="M573.87,185.152c0.802,8.744,0.92,17.463,0.851,26.168c-0.056,4.351-0.149,8.702-0.36,13.042
				c-0.174,4.345-0.419,8.684-0.749,13.015c-1.278,17.329-3.401,34.593-6.548,51.708c-3.154,17.109-7.068,34.12-12.512,50.752
				c-1.26,4.174-2.774,8.293-4.327,12.389c-1.556,4.095-3.044,8.193-4.916,12.182l-2.744,5.979l-1.401,2.968l-0.704,1.479
				l-0.801,1.446c-2.119,3.859-4.329,7.652-6.628,11.36c3.913-17.077,7.256-33.806,10.485-50.635
				c3.293-16.788,6.167-33.668,9.297-50.512c3.116-16.85,6.184-33.742,9.548-50.634C565.766,218.965,569.307,202.067,573.87,185.152
				z"/>
			<path fill="#C17276" d="M710.508,342.605c0,0,33.427,92.017,51.7,87.872s27.093-60.458-7.716-107.264
				C754.492,323.212,723.433,338.933,710.508,342.605z"/>
			<path fill="#DA8C8D" d="M778.259,387.64l-89.918-90.402l0,0c0,0-5.092-24.044-6.79-24.044c-1.129,0-0.956,8.47-0.713,14.154
				c-4.662-8.488-14.234-24.54-18.864-22.347c-6.254,2.963-8.056,21.153-4.435,27.736s18.757,22.499,18.757,22.499
				s59.453,115.915,85.913,115.24C788.669,429.801,778.259,387.64,778.259,387.64z"/>
		</g>
	</g>
</g>
</svg>
